<?xml version="1.0" standalone="no"?>
<!DOCTYPE svg PUBLIC "-//W3C//DTD SVG 20010904//EN"
 "http://www.w3.org/TR/2001/REC-SVG-20010904/DTD/svg10.dtd">
<svg version="1.0" xmlns="http://www.w3.org/2000/svg"
 width="100.000000pt" height="100.000000pt" viewBox="0 0 100.000000 100.000000"
 preserveAspectRatio="xMidYMid meet">
<metadata>
Created by potrace 1.11, written by Peter Selinger 2001-2013
</metadata>
<g transform="translate(0.000000,100.000000) scale(0.100000,-0.100000)"
fill="#000000" stroke="none">
<path d="M30 959 c-11 -20 -11 -20 18 -5 26 13 92 15 473 13 l444 -2 1 -50 c0
-42 -5 -56 -30 -85 -29 -32 -29 -33 -3 -11 15 14 27 21 28 18 4 -26 2 -54 -4
-64 -4 -6 -3 -14 3 -18 13 -8 13 -101 0 -125 -7 -12 -6 -44 1 -95 9 -69 8 -79
-7 -96 -13 -14 -14 -18 -3 -14 12 4 14 -17 14 -135 1 -150 -3 -159 -42 -100
-13 18 -23 28 -23 22 0 -7 16 -30 36 -52 39 -43 38 -72 -2 -46 -38 26 -41 18
-3 -9 40 -30 44 -51 9 -48 -21 2 -22 1 -6 -5 32 -14 4 -21 -71 -18 -66 2 -73
4 -98 34 -15 18 -31 32 -35 32 -5 0 2 -12 15 -26 14 -15 22 -30 19 -35 -8 -14
-190 -11 -206 4 -8 6 -36 32 -63 57 -37 35 -43 38 -26 15 12 -17 33 -39 46
-49 14 -10 25 -23 25 -27 0 -15 -50 -10 -77 9 -15 9 -24 11 -19 4 4 -7 1 -15
-9 -18 -11 -4 -29 5 -53 27 -22 20 -27 23 -14 8 13 -15 20 -29 15 -32 -15 -9
-184 -7 -201 2 -21 11 -154 2 -146 -10 9 -15 918 -11 932 3 17 17 17 919 0
936 -9 9 -127 12 -470 12 -452 0 -457 0 -468 -21z"/>
<path d="M811 934 c0 -11 3 -14 6 -6 3 7 2 16 -1 19 -3 4 -6 -2 -5 -13z"/>
<path d="M20 837 l0 -67 25 22 c14 12 25 26 25 32 0 6 -5 5 -12 -2 -21 -21
-30 -13 -27 28 2 21 0 42 -4 46 -4 4 -7 -23 -7 -59z"/>
<path d="M744 842 c-33 -31 -67 -66 -75 -77 -8 -11 18 9 56 44 60 55 94 92 83
91 -2 -1 -30 -26 -64 -58z"/>
<path d="M212 876 c7 -8 15 -12 17 -11 5 6 -10 25 -20 25 -5 0 -4 -6 3 -14z"/>
<path d="M779 793 l-34 -38 38 34 c34 33 42 41 34 41 -2 0 -19 -17 -38 -37z"/>
<path d="M926 771 c-10 -11 -16 -26 -13 -33 4 -10 6 -10 6 1 1 8 8 23 18 33 9
10 14 18 11 18 -3 0 -13 -9 -22 -19z"/>
<path d="M22 676 c-2 -79 0 -87 13 -76 10 8 12 16 6 19 -6 4 -12 38 -14 76 -3
68 -3 67 -5 -19z"/>
<path d="M714 713 c-15 -20 -23 -33 -16 -29 13 8 56 66 49 66 -3 0 -17 -17
-33 -37z"/>
<path d="M871 724 c0 -11 3 -14 6 -6 3 7 2 16 -1 19 -3 4 -6 -2 -5 -13z"/>
<path d="M455 720 c-3 -6 1 -7 9 -4 18 7 21 14 7 14 -6 0 -13 -4 -16 -10z"/>
<path d="M405 682 c-5 -4 -17 -16 -25 -27 -11 -15 -7 -14 13 4 24 22 32 31 25
31 -2 0 -7 -4 -13 -8z"/>
<path d="M493 655 c-74 -37 -153 -111 -152 -142 0 -14 2 -13 10 5 17 43 74 92
154 131 44 22 75 40 69 41 -6 0 -43 -16 -81 -35z"/>
<path d="M941 664 c0 -11 3 -14 6 -6 3 7 2 16 -1 19 -3 4 -6 -2 -5 -13z"/>
<path d="M852 640 c0 -14 2 -19 5 -12 2 6 2 18 0 25 -3 6 -5 1 -5 -13z"/>
<path d="M128 634 c12 -8 22 -23 23 -32 0 -11 2 -13 6 -4 6 14 -24 52 -41 52
-6 0 0 -7 12 -16z"/>
<path d="M578 643 c7 -3 16 -2 19 1 4 3 -2 6 -13 5 -11 0 -14 -3 -6 -6z"/>
<path d="M892 620 c0 -19 2 -27 5 -17 2 9 2 25 0 35 -3 9 -5 1 -5 -18z"/>
<path d="M881 564 c0 -11 3 -14 6 -6 3 7 2 16 -1 19 -3 4 -6 -2 -5 -13z"/>
<path d="M525 550 c-3 -6 1 -7 9 -4 18 7 21 14 7 14 -6 0 -13 -4 -16 -10z"/>
<path d="M216 515 c-9 -26 -7 -32 5 -12 6 10 9 21 6 23 -2 3 -7 -2 -11 -11z"/>
<path d="M141 504 c0 -11 3 -14 6 -6 3 7 2 16 -1 19 -3 4 -6 -2 -5 -13z"/>
<path d="M22 279 c1 -123 3 -202 5 -176 3 37 8 47 19 43 12 -5 12 -2 0 17 -9
16 -14 67 -15 177 -1 85 -4 156 -6 159 -3 2 -4 -97 -3 -220z"/>
<path d="M321 474 c0 -11 3 -14 6 -6 3 7 2 16 -1 19 -3 4 -6 -2 -5 -13z"/>
<path d="M116 454 c-4 -14 -5 -28 -3 -31 3 -2 8 8 11 23 4 14 5 28 3 31 -3 2
-8 -8 -11 -23z"/>
<path d="M893 428 c-24 -27 -46 -68 -40 -74 2 -2 18 18 35 46 34 55 36 61 5
28z"/>
<path d="M752 400 c0 -14 2 -19 5 -12 2 6 2 18 0 25 -3 6 -5 1 -5 -13z"/>
<path d="M411 394 c0 -11 3 -14 6 -6 3 7 2 16 -1 19 -3 4 -6 -2 -5 -13z"/>
<path d="M320 355 c0 -23 31 -91 54 -120 9 -11 5 3 -9 31 -14 29 -25 58 -25
65 0 8 -5 21 -10 29 -8 12 -10 12 -10 -5z"/>
<path d="M842 315 c0 -16 2 -22 5 -12 2 9 2 23 0 30 -3 6 -5 -1 -5 -18z"/>
<path d="M882 280 c0 -19 2 -27 5 -17 2 9 2 25 0 35 -3 9 -5 1 -5 -18z"/>
<path d="M842 240 c0 -14 2 -19 5 -12 2 6 2 18 0 25 -3 6 -5 1 -5 -13z"/>
<path d="M278 235 c6 -11 21 -29 34 -40 22 -19 22 -19 -2 10 -40 48 -43 51
-32 30z"/>
<path d="M681 234 c0 -11 3 -14 6 -6 3 7 2 16 -1 19 -3 4 -6 -2 -5 -13z"/>
<path d="M580 196 c0 -3 9 -10 20 -16 11 -6 20 -8 20 -6 0 3 -9 10 -20 16 -11
6 -20 8 -20 6z"/>
<path d="M710 171 c0 -6 4 -13 10 -16 6 -3 7 1 4 9 -7 18 -14 21 -14 7z"/>
<path d="M570 125 c19 -19 36 -35 39 -35 3 0 -10 16 -29 35 -19 19 -36 35 -39
35 -3 0 10 -16 29 -35z"/>
<path d="M741 133 c-1 -13 77 -83 92 -83 6 0 -11 16 -36 35 -25 19 -47 40 -50
47 -4 9 -6 9 -6 1z"/>
<path d="M855 100 c10 -11 20 -20 23 -20 3 0 -3 9 -13 20 -10 11 -20 20 -23
20 -3 0 3 -9 13 -20z"/>
<path d="M895 70 c3 -5 8 -10 11 -10 2 0 4 5 4 10 0 6 -5 10 -11 10 -5 0 -7
-4 -4 -10z"/>
</g>
</svg>
